<?xml version="1.0" standalone="no"?>
<!DOCTYPE svg PUBLIC "-//W3C//DTD SVG 20010904//EN"
 "http://www.w3.org/TR/2001/REC-SVG-20010904/DTD/svg10.dtd">
<svg version="1.0" xmlns="http://www.w3.org/2000/svg"
 width="400.000000pt" height="400.000000pt" viewBox="0 0 400.000000 400.000000"
 preserveAspectRatio="xMidYMid meet">
<metadata>
Created by potrace 1.11, written by Peter Selinger 2001-2013
</metadata>
<g transform="translate(0.000000,400.000000) scale(0.100000,-0.100000)"
fill="#000000" stroke="none">
<path d="M1860 2687 c-73 -21 -160 -76 -250 -161 -80 -75 -86 -83 -98 -140 -8
-38 -12 -103 -10 -173 4 -110 5 -112 56 -217 29 -60 47 -108 41 -111 -5 -4
-27 -41 -49 -83 -22 -42 -51 -90 -66 -106 -24 -27 -27 -28 -39 -13 -20 27 -42
20 -55 -18 -6 -19 -20 -37 -31 -40 -10 -4 -19 -11 -19 -16 0 -9 17 -7 58 8 6
3 12 0 12 -6 0 -6 6 -11 13 -11 6 0 23 -16 36 -35 20 -29 23 -43 18 -80 -6
-40 -4 -46 22 -65 16 -11 35 -20 43 -20 7 0 22 -7 32 -15 14 -11 23 -12 33 -4
7 6 13 8 13 3 0 -5 -14 -18 -31 -30 -25 -18 -36 -20 -72 -12 -72 16 -151 27
-156 22 -2 -2 3 -4 13 -4 9 0 15 -4 12 -9 -4 -5 0 -11 6 -14 7 -2 2 -5 -12 -6
-14 0 -34 -2 -45 -3 -11 -1 -30 2 -42 6 -18 6 -21 4 -16 -14 5 -17 1 -20 -28
-20 -54 0 -82 -20 -92 -65 -22 -99 -28 -115 -45 -116 -11 0 -13 -2 -4 -6 10
-4 8 -9 -6 -19 -13 -9 -18 -21 -15 -39 4 -18 1 -25 -10 -25 -8 0 -20 -7 -27
-15 -8 -10 -26 -15 -49 -13 -31 3 -36 0 -39 -20 -3 -18 -6 -21 -17 -12 -10 9
-16 5 -27 -17 -10 -19 -21 -27 -35 -26 -17 2 -24 -6 -33 -33 -7 -20 -9 -47 -4
-62 4 -15 6 -31 5 -36 -3 -16 28 -54 51 -61 21 -7 21 -8 -9 -34 -24 -20 -32
-37 -37 -74 -4 -36 -2 -47 8 -47 8 0 17 -7 20 -16 8 -22 -11 -54 -33 -54 -28
0 -54 -45 -46 -81 4 -16 13 -29 21 -29 10 0 14 -12 14 -40 0 -22 -5 -40 -11
-40 -6 0 -9 -10 -7 -23 2 -17 11 -23 40 -27 46 -6 37 -24 -14 -28 -34 -2 -38
0 -44 25 -4 15 -10 30 -14 33 -12 8 -26 142 -19 183 4 26 3 35 -4 28 -6 -6
-15 -63 -21 -128 -8 -87 -16 -126 -30 -147 -25 -36 -14 -55 40 -72 21 -7 30
-12 18 -11 -24 2 -54 -19 -54 -38 0 -7 -7 -15 -15 -19 -8 -3 -15 -15 -15 -26
0 -12 -4 -19 -9 -16 -9 6 -21 -16 -21 -40 0 -12 175 -14 1185 -14 l1185 0 -6
32 c-3 18 -10 53 -15 77 -10 45 -8 58 10 47 12 -8 51 -110 51 -136 0 -11 4
-20 9 -20 5 0 7 28 5 63 l-5 62 25 -50 c14 -27 25 -56 26 -62 0 -10 61 -13
270 -13 l271 0 -3 45 c-2 32 -7 45 -18 46 -8 0 -5 4 8 9 22 9 22 12 16 107 -8
112 -33 178 -122 320 -29 46 -52 85 -52 88 0 2 -20 36 -45 75 -70 108 -92 185
-45 160 13 -7 21 -7 25 0 3 6 -1 13 -9 16 -10 4 -16 19 -16 41 0 35 1 35 34
29 22 -4 37 -2 42 5 3 6 26 20 50 30 27 12 48 31 58 50 19 38 14 49 -25 49
-31 0 -36 9 -17 28 8 8 5 14 -14 21 -21 8 -25 16 -25 48 0 21 -10 53 -22 73
-20 34 -22 33 -25 -20 -1 -14 -5 -51 -10 -82 -9 -63 -24 -73 -50 -36 l-16 22
-28 -27 c-36 -35 -50 -22 -49 43 0 33 -3 45 -14 45 -8 0 -24 6 -37 13 -12 7
-30 12 -40 11 -32 -3 -37 1 -92 71 -29 39 -58 70 -62 70 -5 0 -13 11 -18 25
-10 26 -24 32 -35 15 -4 -6 -28 1 -63 19 -31 16 -78 34 -104 41 -27 7 -48 15
-48 19 0 15 -70 51 -118 62 -48 10 -53 13 -47 33 14 45 4 107 -26 159 -16 29
-33 59 -38 67 -4 8 -19 15 -32 15 -22 0 -24 4 -21 38 3 25 -3 48 -18 72 -15
25 -22 54 -24 102 -1 38 -8 84 -16 105 -13 34 -12 38 13 68 34 39 34 60 2 90
-14 13 -25 33 -25 44 0 40 -12 67 -24 57 -14 -12 -45 13 -65 51 -8 15 -28 34
-45 42 -17 9 -24 16 -16 16 8 0 30 -9 49 -21 18 -11 35 -18 37 -16 10 10 -51
99 -101 146 -83 78 -127 95 -265 98 -71 2 -132 -2 -160 -10z m380 -183 c-56
-9 -106 -28 -133 -50 -21 -18 -41 -24 -75 -24 -61 0 -153 -29 -238 -74 -76
-40 -112 -48 -71 -15 36 28 164 86 229 103 29 8 89 26 133 39 44 14 103 25
130 24 28 0 39 -1 25 -3z m-577 -231 c-11 -35 -77 -123 -90 -123 -11 0 -10 6
2 31 9 16 23 33 31 36 7 3 14 10 14 16 0 9 39 57 46 57 2 0 1 -8 -3 -17z
m1592 -1104 c10 -15 -1 -23 -20 -15 -9 3 -13 10 -10 16 8 13 22 13 30 -1z
m263 -119 c-1 -28 -11 -39 -21 -22 -5 8 9 52 17 52 3 0 4 -13 4 -30z m-62 -18
c-18 -18 -29 -12 -20 11 3 9 12 13 21 10 13 -5 13 -8 -1 -21z m-96 -57 c0 -29
-27 -45 -41 -24 -6 10 -2 19 12 32 27 22 29 22 29 -8z"/>
<path d="M125 1774 c-11 -8 -25 -12 -32 -10 -7 3 -13 2 -13 -3 0 -4 -12 -6
-27 -3 l-28 5 25 -20 c13 -12 31 -18 39 -15 9 3 12 0 9 -9 -3 -8 -10 -14 -16
-14 -25 0 -32 -20 -16 -49 15 -30 13 -35 -21 -50 -5 -3 -1 -12 10 -20 19 -16
19 -17 1 -47 -10 -17 -15 -40 -12 -53 4 -15 -2 -30 -20 -49 -22 -24 -25 -34
-21 -90 2 -45 5 -56 11 -40 4 12 14 24 22 27 8 3 14 13 14 23 1 23 21 48 40
48 12 0 14 12 12 58 -2 37 1 57 8 57 6 0 9 8 6 18 -5 15 1 17 45 18 32 0 54 6
59 15 20 32 -17 169 -45 169 -11 0 -14 7 -9 25 7 29 -10 33 -41 9z"/>
<path d="M1281 1529 c-21 -34 -18 -41 27 -66 28 -17 32 -16 32 2 0 8 5 24 12
35 10 15 9 23 -6 39 -26 29 -43 26 -65 -10z"/>
<path d="M1221 1458 c-10 -18 -11 -20 0 -10 7 6 21 12 32 12 10 0 15 5 12 10
-10 17 -29 11 -44 -12z"/>
<path d="M3070 1415 c0 -28 3 -30 32 -14 21 11 21 12 3 25 -27 20 -35 17 -35
-11z"/>
<path d="M3670 1430 c-8 -5 -23 -11 -32 -14 -23 -7 -23 -36 0 -36 24 0 62 28
62 46 0 16 -8 17 -30 4z"/>
<path d="M3870 1403 c0 -32 -14 -51 -25 -34 -4 8 -62 41 -71 41 -1 0 -5 -26
-9 -57 -10 -93 -13 -103 -36 -103 -11 0 -29 -5 -40 -11 -18 -9 -19 -13 -7 -27
34 -41 42 -71 30 -106 -7 -19 -10 -51 -6 -72 6 -43 -10 -99 -26 -89 -12 7 -80
-62 -80 -81 0 -6 -6 -14 -14 -17 -25 -10 -47 -99 -43 -174 l4 -68 30 2 c17 2
55 19 84 38 30 19 58 35 64 35 18 0 79 49 87 70 4 11 24 24 48 31 28 9 42 19
46 35 4 15 15 24 32 26 26 3 27 5 24 60 -3 49 -1 58 17 68 21 11 21 16 19 233
-2 140 -7 222 -13 222 -5 0 -11 -10 -13 -23 -3 -16 -8 -22 -18 -18 -10 4 -14
-1 -13 -17 6 -73 -11 -75 -35 -4 -24 66 -36 80 -36 40z m76 -360 c-11 -11 -19
6 -11 24 8 17 8 17 12 0 3 -10 2 -21 -1 -24z"/>
<path d="M781 1347 c-7 -10 -17 -32 -20 -50 -4 -18 -13 -32 -21 -32 -8 0 -19
-5 -25 -11 -12 -14 -70 -34 -97 -34 -11 0 -26 -7 -35 -15 -8 -8 -19 -13 -24
-10 -11 8 -12 -6 0 -23 8 -13 66 -20 77 -9 3 3 20 1 37 -5 54 -18 169 -26 200
-15 18 6 34 22 43 43 9 21 22 34 36 36 29 4 35 35 11 54 -16 13 -16 13 0 8 21
-7 22 2 3 21 -8 9 -27 12 -47 10 -122 -15 -118 -16 -121 18 -3 27 -4 29 -17
14z"/>
<path d="M3546 1243 c-6 -51 -4 -59 17 -81 l24 -24 19 29 c11 15 19 42 19 58
0 25 -4 30 -22 27 -17 -2 -24 3 -29 22 -10 42 -21 30 -28 -31z"/>
<path d="M430 1266 c0 -11 9 -16 26 -16 31 0 28 23 -4 28 -15 2 -22 -2 -22
-12z"/>
<path d="M1000 1214 c0 -8 5 -12 10 -9 6 3 10 10 10 16 0 5 -4 9 -10 9 -5 0
-10 -7 -10 -16z"/>
<path d="M3460 879 c-9 -15 -8 -24 1 -35 19 -23 29 -16 29 21 0 39 -14 46 -30
14z"/>
<path d="M3972 743 c4 -48 28 -57 28 -10 0 22 -6 37 -16 41 -12 5 -15 -1 -12
-31z"/>
</g>
</svg>
