<?xml version="1.0" encoding="us-ascii" standalone="no"?><svg xmlns="http://www.w3.org/2000/svg" xmlns:xlink="http://www.w3.org/1999/xlink" contentStyleType="text/css" height="701px" preserveAspectRatio="none" style="width:1055px;height:701px;background:#FFFFFF;" version="1.1" viewBox="0 0 1055 701" width="1055px" zoomAndPan="magnify"><defs/><g><!--class Player--><g id="elem_Player"><rect codeLine="1" fill="#F1F1F1" height="64.2969" id="Player" rx="2.5" ry="2.5" style="stroke:#181818;stroke-width:0.5;" width="162" x="231" y="23.5"/><ellipse cx="285.75" cy="39.5" fill="#ADD1B2" rx="11" ry="11" style="stroke:#181818;stroke-width:1.0;"/><path d="M288.0938,35.1719 C287.1563,34.7344 286.5625,34.5938 285.6875,34.5938 C283.0625,34.5938 281.0625,36.6719 281.0625,39.3906 L281.0625,40.5156 C281.0625,43.0938 283.1719,44.9844 286.0625,44.9844 C287.2813,44.9844 288.4375,44.6875 289.1875,44.1406 C289.7656,43.7344 290.0938,43.2813 290.0938,42.8906 C290.0938,42.4375 289.7031,42.0469 289.2344,42.0469 C289.0156,42.0469 288.8125,42.125 288.625,42.3125 C288.1719,42.7969 288.1719,42.7969 287.9844,42.8906 C287.5625,43.1563 286.875,43.2813 286.1094,43.2813 C284.0625,43.2813 282.7656,42.1875 282.7656,40.4844 L282.7656,39.3906 C282.7656,37.6094 284.0156,36.2969 285.75,36.2969 C286.3281,36.2969 286.9375,36.4531 287.4063,36.7031 C287.8906,36.9844 288.0625,37.2031 288.1563,37.6094 C288.2188,38.0156 288.25,38.1406 288.3906,38.2656 C288.5313,38.4063 288.7656,38.5156 288.9844,38.5156 C289.25,38.5156 289.5156,38.375 289.6875,38.1563 C289.7969,38 289.8281,37.8125 289.8281,37.3906 L289.8281,35.9688 C289.8281,35.5313 289.8125,35.4063 289.7188,35.25 C289.5625,34.9844 289.2813,34.8438 288.9844,34.8438 C288.6875,34.8438 288.4844,34.9375 288.2656,35.25 L288.0938,35.1719 Z " fill="#000000"/><text fill="#000000" font-family="sans-serif" font-size="14" lengthAdjust="spacing" textLength="44" x="306.25" y="44.3467">Player</text><line style="stroke:#181818;stroke-width:0.5;" x1="232" x2="392" y1="55.5" y2="55.5"/><ellipse cx="242" cy="69.1484" fill="none" rx="3" ry="3" style="stroke:#038048;stroke-width:1.0;"/><text fill="#000000" font-family="sans-serif" font-size="14" lengthAdjust="spacing" textLength="136" x="251" y="72.4951">address: AccountId</text><line style="stroke:#181818;stroke-width:0.5;" x1="232" x2="392" y1="79.7969" y2="79.7969"/></g><!--class ButtonGame--><g id="elem_ButtonGame"><rect codeLine="5" fill="#F1F1F1" height="210.9688" id="ButtonGame" rx="2.5" ry="2.5" style="stroke:#181818;stroke-width:0.5;" width="281" x="300.5" y="181"/><ellipse cx="390.75" cy="197" fill="#ADD1B2" rx="11" ry="11" style="stroke:#181818;stroke-width:1.0;"/><path d="M393.0938,192.6719 C392.1563,192.2344 391.5625,192.0938 390.6875,192.0938 C388.0625,192.0938 386.0625,194.1719 386.0625,196.8906 L386.0625,198.0156 C386.0625,200.5938 388.1719,202.4844 391.0625,202.4844 C392.2813,202.4844 393.4375,202.1875 394.1875,201.6406 C394.7656,201.2344 395.0938,200.7813 395.0938,200.3906 C395.0938,199.9375 394.7031,199.5469 394.2344,199.5469 C394.0156,199.5469 393.8125,199.625 393.625,199.8125 C393.1719,200.2969 393.1719,200.2969 392.9844,200.3906 C392.5625,200.6563 391.875,200.7813 391.1094,200.7813 C389.0625,200.7813 387.7656,199.6875 387.7656,197.9844 L387.7656,196.8906 C387.7656,195.1094 389.0156,193.7969 390.75,193.7969 C391.3281,193.7969 391.9375,193.9531 392.4063,194.2031 C392.8906,194.4844 393.0625,194.7031 393.1563,195.1094 C393.2188,195.5156 393.25,195.6406 393.3906,195.7656 C393.5313,195.9063 393.7656,196.0156 393.9844,196.0156 C394.25,196.0156 394.5156,195.875 394.6875,195.6563 C394.7969,195.5 394.8281,195.3125 394.8281,194.8906 L394.8281,193.4688 C394.8281,193.0313 394.8125,192.9063 394.7188,192.75 C394.5625,192.4844 394.2813,192.3438 393.9844,192.3438 C393.6875,192.3438 393.4844,192.4375 393.2656,192.75 L393.0938,192.6719 Z " fill="#000000"/><text fill="#000000" font-family="sans-serif" font-size="14" lengthAdjust="spacing" textLength="92" x="411.25" y="201.8467">ButtonGame</text><line style="stroke:#181818;stroke-width:0.5;" x1="301.5" x2="580.5" y1="213" y2="213"/><ellipse cx="311.5" cy="226.6484" fill="none" rx="3" ry="3" style="stroke:#038048;stroke-width:1.0;"/><text fill="#000000" font-family="sans-serif" font-size="14" lengthAdjust="spacing" textLength="136" x="320.5" y="229.9951">address: AccountId</text><ellipse cx="311.5" cy="242.9453" fill="none" rx="3" ry="3" style="stroke:#038048;stroke-width:1.0;"/><text fill="#000000" font-family="sans-serif" font-size="14" lengthAdjust="spacing" textLength="124" x="320.5" y="246.292">pressCount: u128</text><ellipse cx="311.5" cy="259.2422" fill="none" rx="3" ry="3" style="stroke:#038048;stroke-width:1.0;"/><text fill="#000000" font-family="sans-serif" font-size="14" lengthAdjust="spacing" textLength="206" x="320.5" y="262.5889">lastPressTime: BlockNumber</text><ellipse cx="311.5" cy="275.5391" fill="none" rx="3" ry="3" style="stroke:#038048;stroke-width:1.0;"/><text fill="#000000" font-family="sans-serif" font-size="14" lengthAdjust="spacing" textLength="113" x="320.5" y="278.8857">pressiah: Player</text><ellipse cx="311.5" cy="291.8359" fill="none" rx="3" ry="3" style="stroke:#038048;stroke-width:1.0;"/><text fill="#000000" font-family="sans-serif" font-size="14" lengthAdjust="spacing" textLength="190" x="320.5" y="295.1826">totalRewardsPaid: Balance</text><ellipse cx="311.5" cy="308.1328" fill="none" rx="3" ry="3" style="stroke:#038048;stroke-width:1.0;"/><text fill="#000000" font-family="sans-serif" font-size="14" lengthAdjust="spacing" textLength="141" x="320.5" y="311.4795">ticketToken: PSP22</text><ellipse cx="311.5" cy="324.4297" fill="none" rx="3" ry="3" style="stroke:#038048;stroke-width:1.0;"/><text fill="#000000" font-family="sans-serif" font-size="14" lengthAdjust="spacing" textLength="146" x="320.5" y="327.7764">rewardToken: PSP22</text><ellipse cx="311.5" cy="340.7266" fill="none" rx="3" ry="3" style="stroke:#038048;stroke-width:1.0;"/><text fill="#000000" font-family="sans-serif" font-size="14" lengthAdjust="spacing" textLength="255" x="320.5" y="344.0732">marketplaceContract: Marketplace</text><line style="stroke:#181818;stroke-width:1.0;" x1="301.5" x2="580.5" y1="351.375" y2="351.375"/><ellipse cx="311.5" cy="365.0234" fill="#84BE84" rx="3" ry="3" style="stroke:#038048;stroke-width:1.0;"/><text fill="#000000" font-family="sans-serif" font-size="14" lengthAdjust="spacing" textLength="88" x="320.5" y="368.3701">press(): void</text><ellipse cx="311.5" cy="381.3203" fill="#84BE84" rx="3" ry="3" style="stroke:#038048;stroke-width:1.0;"/><text fill="#000000" font-family="sans-serif" font-size="14" lengthAdjust="spacing" textLength="87" x="320.5" y="384.667">reset(): void</text></g><!--class Marketplace--><g id="elem_Marketplace"><rect codeLine="19" fill="#F1F1F1" height="113.1875" id="Marketplace" rx="2.5" ry="2.5" style="stroke:#181818;stroke-width:0.5;" width="199" x="147.5" y="422"/><ellipse cx="197.75" cy="438" fill="#ADD1B2" rx="11" ry="11" style="stroke:#181818;stroke-width:1.0;"/><path d="M200.0938,433.6719 C199.1563,433.2344 198.5625,433.0938 197.6875,433.0938 C195.0625,433.0938 193.0625,435.1719 193.0625,437.8906 L193.0625,439.0156 C193.0625,441.5938 195.1719,443.4844 198.0625,443.4844 C199.2813,443.4844 200.4375,443.1875 201.1875,442.6406 C201.7656,442.2344 202.0938,441.7813 202.0938,441.3906 C202.0938,440.9375 201.7031,440.5469 201.2344,440.5469 C201.0156,440.5469 200.8125,440.625 200.625,440.8125 C200.1719,441.2969 200.1719,441.2969 199.9844,441.3906 C199.5625,441.6563 198.875,441.7813 198.1094,441.7813 C196.0625,441.7813 194.7656,440.6875 194.7656,438.9844 L194.7656,437.8906 C194.7656,436.1094 196.0156,434.7969 197.75,434.7969 C198.3281,434.7969 198.9375,434.9531 199.4063,435.2031 C199.8906,435.4844 200.0625,435.7031 200.1563,436.1094 C200.2188,436.5156 200.25,436.6406 200.3906,436.7656 C200.5313,436.9063 200.7656,437.0156 200.9844,437.0156 C201.25,437.0156 201.5156,436.875 201.6875,436.6563 C201.7969,436.5 201.8281,436.3125 201.8281,435.8906 L201.8281,434.4688 C201.8281,434.0313 201.8125,433.9063 201.7188,433.75 C201.5625,433.4844 201.2813,433.3438 200.9844,433.3438 C200.6875,433.3438 200.4844,433.4375 200.2656,433.75 L200.0938,433.6719 Z " fill="#000000"/><text fill="#000000" font-family="sans-serif" font-size="14" lengthAdjust="spacing" textLength="90" x="218.25" y="442.8467">Marketplace</text><line style="stroke:#181818;stroke-width:0.5;" x1="148.5" x2="345.5" y1="454" y2="454"/><ellipse cx="158.5" cy="467.6484" fill="none" rx="3" ry="3" style="stroke:#038048;stroke-width:1.0;"/><text fill="#000000" font-family="sans-serif" font-size="14" lengthAdjust="spacing" textLength="136" x="167.5" y="470.9951">address: AccountId</text><ellipse cx="158.5" cy="483.9453" fill="none" rx="3" ry="3" style="stroke:#038048;stroke-width:1.0;"/><text fill="#000000" font-family="sans-serif" font-size="14" lengthAdjust="spacing" textLength="141" x="167.5" y="487.292">ticketToken: PSP22</text><ellipse cx="158.5" cy="500.2422" fill="none" rx="3" ry="3" style="stroke:#038048;stroke-width:1.0;"/><text fill="#000000" font-family="sans-serif" font-size="14" lengthAdjust="spacing" textLength="158" x="167.5" y="503.5889">averagePrice: Balance</text><line style="stroke:#181818;stroke-width:1.0;" x1="148.5" x2="345.5" y1="510.8906" y2="510.8906"/><ellipse cx="158.5" cy="524.5391" fill="#84BE84" rx="3" ry="3" style="stroke:#038048;stroke-width:1.0;"/><text fill="#000000" font-family="sans-serif" font-size="14" lengthAdjust="spacing" textLength="173" x="167.5" y="527.8857">buy(player: Player): void</text></g><!--class SimpleDex--><g id="elem_SimpleDex"><rect codeLine="27" fill="#F1F1F1" height="96.8906" id="SimpleDex" rx="2.5" ry="2.5" style="stroke:#181818;stroke-width:0.5;" width="584" x="464" y="7"/><ellipse cx="712.75" cy="23" fill="#ADD1B2" rx="11" ry="11" style="stroke:#181818;stroke-width:1.0;"/><path d="M715.0938,18.6719 C714.1563,18.2344 713.5625,18.0938 712.6875,18.0938 C710.0625,18.0938 708.0625,20.1719 708.0625,22.8906 L708.0625,24.0156 C708.0625,26.5938 710.1719,28.4844 713.0625,28.4844 C714.2813,28.4844 715.4375,28.1875 716.1875,27.6406 C716.7656,27.2344 717.0938,26.7813 717.0938,26.3906 C717.0938,25.9375 716.7031,25.5469 716.2344,25.5469 C716.0156,25.5469 715.8125,25.625 715.625,25.8125 C715.1719,26.2969 715.1719,26.2969 714.9844,26.3906 C714.5625,26.6563 713.875,26.7813 713.1094,26.7813 C711.0625,26.7813 709.7656,25.6875 709.7656,23.9844 L709.7656,22.8906 C709.7656,21.1094 711.0156,19.7969 712.75,19.7969 C713.3281,19.7969 713.9375,19.9531 714.4063,20.2031 C714.8906,20.4844 715.0625,20.7031 715.1563,21.1094 C715.2188,21.5156 715.25,21.6406 715.3906,21.7656 C715.5313,21.9063 715.7656,22.0156 715.9844,22.0156 C716.25,22.0156 716.5156,21.875 716.6875,21.6563 C716.7969,21.5 716.8281,21.3125 716.8281,20.8906 L716.8281,19.4688 C716.8281,19.0313 716.8125,18.9063 716.7188,18.75 C716.5625,18.4844 716.2813,18.3438 715.9844,18.3438 C715.6875,18.3438 715.4844,18.4375 715.2656,18.75 L715.0938,18.6719 Z " fill="#000000"/><text fill="#000000" font-family="sans-serif" font-size="14" lengthAdjust="spacing" textLength="78" x="733.25" y="27.8467">SimpleDex</text><line style="stroke:#181818;stroke-width:0.5;" x1="465" x2="1047" y1="39" y2="39"/><ellipse cx="475" cy="52.6484" fill="none" rx="3" ry="3" style="stroke:#038048;stroke-width:1.0;"/><text fill="#000000" font-family="sans-serif" font-size="14" lengthAdjust="spacing" textLength="136" x="484" y="55.9951">address: AccountId</text><ellipse cx="475" cy="68.9453" fill="none" rx="3" ry="3" style="stroke:#038048;stroke-width:1.0;"/><text fill="#000000" font-family="sans-serif" font-size="14" lengthAdjust="spacing" textLength="136" x="484" y="72.292">tokenPool: PSP22[]</text><line style="stroke:#181818;stroke-width:1.0;" x1="465" x2="1047" y1="79.5938" y2="79.5938"/><ellipse cx="475" cy="93.2422" fill="#84BE84" rx="3" ry="3" style="stroke:#038048;stroke-width:1.0;"/><text fill="#000000" font-family="sans-serif" font-size="14" lengthAdjust="spacing" textLength="558" x="484" y="96.5889">swap(in: PSP22, out: PSP22, amountIn: Balance, minAmountOut: Balance): void</text></g><!--class TicketToken--><g id="elem_TicketToken"><rect codeLine="34" fill="#F1F1F1" height="96.8906" id="TicketToken" rx="2.5" ry="2.5" style="stroke:#181818;stroke-width:0.5;" width="482" x="522" y="581"/><ellipse cx="713.25" cy="597" fill="#ADD1B2" rx="11" ry="11" style="stroke:#181818;stroke-width:1.0;"/><path d="M715.5938,592.6719 C714.6563,592.2344 714.0625,592.0938 713.1875,592.0938 C710.5625,592.0938 708.5625,594.1719 708.5625,596.8906 L708.5625,598.0156 C708.5625,600.5938 710.6719,602.4844 713.5625,602.4844 C714.7813,602.4844 715.9375,602.1875 716.6875,601.6406 C717.2656,601.2344 717.5938,600.7813 717.5938,600.3906 C717.5938,599.9375 717.2031,599.5469 716.7344,599.5469 C716.5156,599.5469 716.3125,599.625 716.125,599.8125 C715.6719,600.2969 715.6719,600.2969 715.4844,600.3906 C715.0625,600.6563 714.375,600.7813 713.6094,600.7813 C711.5625,600.7813 710.2656,599.6875 710.2656,597.9844 L710.2656,596.8906 C710.2656,595.1094 711.5156,593.7969 713.25,593.7969 C713.8281,593.7969 714.4375,593.9531 714.9063,594.2031 C715.3906,594.4844 715.5625,594.7031 715.6563,595.1094 C715.7188,595.5156 715.75,595.6406 715.8906,595.7656 C716.0313,595.9063 716.2656,596.0156 716.4844,596.0156 C716.75,596.0156 717.0156,595.875 717.1875,595.6563 C717.2969,595.5 717.3281,595.3125 717.3281,594.8906 L717.3281,593.4688 C717.3281,593.0313 717.3125,592.9063 717.2188,592.75 C717.0625,592.4844 716.7813,592.3438 716.4844,592.3438 C716.1875,592.3438 715.9844,592.4375 715.7656,592.75 L715.5938,592.6719 Z " fill="#000000"/><text fill="#000000" font-family="sans-serif" font-size="14" lengthAdjust="spacing" textLength="91" x="733.75" y="601.8467">TicketToken</text><line style="stroke:#181818;stroke-width:0.5;" x1="523" x2="1003" y1="613" y2="613"/><ellipse cx="533" cy="626.6484" fill="none" rx="3" ry="3" style="stroke:#038048;stroke-width:1.0;"/><text fill="#000000" font-family="sans-serif" font-size="14" lengthAdjust="spacing" textLength="136" x="542" y="629.9951">address: AccountId</text><line style="stroke:#181818;stroke-width:1.0;" x1="523" x2="1003" y1="637.2969" y2="637.2969"/><ellipse cx="533" cy="650.9453" fill="#84BE84" rx="3" ry="3" style="stroke:#038048;stroke-width:1.0;"/><text fill="#000000" font-family="sans-serif" font-size="14" lengthAdjust="spacing" textLength="256" x="542" y="654.292">balanceOf(account: string): Balance</text><ellipse cx="533" cy="667.2422" fill="#84BE84" rx="3" ry="3" style="stroke:#038048;stroke-width:1.0;"/><text fill="#000000" font-family="sans-serif" font-size="14" lengthAdjust="spacing" textLength="456" x="542" y="670.5889">transfer(from: AccountId, to: AccountId, amount: Balance): void</text></g><!--class RewardToken--><g id="elem_RewardToken"><rect codeLine="41" fill="#F1F1F1" height="129.4844" id="RewardToken" rx="2.5" ry="2.5" style="stroke:#181818;stroke-width:0.5;" width="480" x="7" y="565"/><ellipse cx="193.75" cy="581" fill="#ADD1B2" rx="11" ry="11" style="stroke:#181818;stroke-width:1.0;"/><path d="M196.0938,576.6719 C195.1563,576.2344 194.5625,576.0938 193.6875,576.0938 C191.0625,576.0938 189.0625,578.1719 189.0625,580.8906 L189.0625,582.0156 C189.0625,584.5938 191.1719,586.4844 194.0625,586.4844 C195.2813,586.4844 196.4375,586.1875 197.1875,585.6406 C197.7656,585.2344 198.0938,584.7813 198.0938,584.3906 C198.0938,583.9375 197.7031,583.5469 197.2344,583.5469 C197.0156,583.5469 196.8125,583.625 196.625,583.8125 C196.1719,584.2969 196.1719,584.2969 195.9844,584.3906 C195.5625,584.6563 194.875,584.7813 194.1094,584.7813 C192.0625,584.7813 190.7656,583.6875 190.7656,581.9844 L190.7656,580.8906 C190.7656,579.1094 192.0156,577.7969 193.75,577.7969 C194.3281,577.7969 194.9375,577.9531 195.4063,578.2031 C195.8906,578.4844 196.0625,578.7031 196.1563,579.1094 C196.2188,579.5156 196.25,579.6406 196.3906,579.7656 C196.5313,579.9063 196.7656,580.0156 196.9844,580.0156 C197.25,580.0156 197.5156,579.875 197.6875,579.6563 C197.7969,579.5 197.8281,579.3125 197.8281,578.8906 L197.8281,577.4688 C197.8281,577.0313 197.8125,576.9063 197.7188,576.75 C197.5625,576.4844 197.2813,576.3438 196.9844,576.3438 C196.6875,576.3438 196.4844,576.4375 196.2656,576.75 L196.0938,576.6719 Z " fill="#000000"/><text fill="#000000" font-family="sans-serif" font-size="14" lengthAdjust="spacing" textLength="98" x="214.25" y="585.8467">RewardToken</text><line style="stroke:#181818;stroke-width:0.5;" x1="8" x2="486" y1="597" y2="597"/><ellipse cx="18" cy="610.6484" fill="none" rx="3" ry="3" style="stroke:#038048;stroke-width:1.0;"/><text fill="#000000" font-family="sans-serif" font-size="14" lengthAdjust="spacing" textLength="136" x="27" y="613.9951">address: AccountId</text><line style="stroke:#181818;stroke-width:1.0;" x1="8" x2="486" y1="621.2969" y2="621.2969"/><ellipse cx="18" cy="634.9453" fill="#84BE84" rx="3" ry="3" style="stroke:#038048;stroke-width:1.0;"/><text fill="#000000" font-family="sans-serif" font-size="14" lengthAdjust="spacing" textLength="286" x="27" y="638.292">balanceOf(account: AccountId): Balance</text><ellipse cx="18" cy="651.2422" fill="#84BE84" rx="3" ry="3" style="stroke:#038048;stroke-width:1.0;"/><text fill="#000000" font-family="sans-serif" font-size="14" lengthAdjust="spacing" textLength="454" x="27" y="654.5889">transfer(from: AccountId, to: AccountId, amount: uint256): void</text><ellipse cx="18" cy="667.5391" fill="#84BE84" rx="3" ry="3" style="stroke:#038048;stroke-width:1.0;"/><text fill="#000000" font-family="sans-serif" font-size="14" lengthAdjust="spacing" textLength="308" x="27" y="670.8857">mint(to: AccountId, amount: Balance): void</text><ellipse cx="18" cy="683.8359" fill="#84BE84" rx="3" ry="3" style="stroke:#038048;stroke-width:1.0;"/><text fill="#000000" font-family="sans-serif" font-size="14" lengthAdjust="spacing" textLength="307" x="27" y="687.1826">burn(to: AccountId, amount: Balance): void</text></g><!--link Player to ButtonGame--><g id="link_Player_ButtonGame"><path codeLine="50" d="M329.666,87.861 C342.709,111.015 361.295,144.008 379.554,176.421 " fill="none" id="Player-to-ButtonGame" style="stroke:#181818;stroke-width:1.0;"/><polygon fill="#181818" points="382.011,180.782,381.0778,170.9775,379.5565,176.4259,374.108,174.9046,382.011,180.782" style="stroke:#181818;stroke-width:1.0;"/><text fill="#000000" font-family="sans-serif" font-size="13" lengthAdjust="spacing" textLength="35" x="366" y="147.0669">press</text></g><!--link ButtonGame to TicketToken--><g id="link_ButtonGame_TicketToken"><path codeLine="51" d="M539.799,392.129 C597.635,453.378 668.127,528.029 714.214,576.835 " fill="none" id="ButtonGame-to-TicketToken" style="stroke:#181818;stroke-width:1.0;"/><polygon fill="#181818" points="717.765,580.596,714.4946,571.306,714.3323,576.9605,708.6778,576.7982,717.765,580.596" style="stroke:#181818;stroke-width:1.0;"/><text fill="#000000" font-family="sans-serif" font-size="13" lengthAdjust="spacing" textLength="51" x="668" y="483.0669">transfer</text></g><!--link ButtonGame to RewardToken--><g id="link_ButtonGame_RewardToken"><path codeLine="52" d="M422.986,392.06 C411.442,438.685 392.992,492.541 364,535 C357.763,544.135 350.368,552.815 342.372,560.94 " fill="none" id="ButtonGame-to-RewardToken" style="stroke:#181818;stroke-width:1.0;"/><polygon fill="#181818" points="338.401,564.884,347.6055,561.3801,341.9487,561.3606,341.9681,555.7038,338.401,564.884" style="stroke:#181818;stroke-width:1.0;"/><text fill="#000000" font-family="sans-serif" font-size="13" lengthAdjust="spacing" textLength="29" x="415" y="483.0669">mint</text></g><!--link Player to SimpleDex--><g id="link_Player_SimpleDex"><path codeLine="55" d="M393.178,55.5 C412.919,55.5 435.19,55.5 458.743,55.5 " fill="none" id="Player-to-SimpleDex" style="stroke:#181818;stroke-width:1.0;"/><polygon fill="#181818" points="463.788,55.5,454.788,51.5,458.788,55.5,454.788,59.5,463.788,55.5" style="stroke:#181818;stroke-width:1.0;"/><text fill="#000000" font-family="sans-serif" font-size="13" lengthAdjust="spacing" textLength="34" x="411.5" y="48.5669">swap</text></g><!--link Player to Marketplace--><g id="link_Player_Marketplace"><path codeLine="57" d="M303.791,87.519 C297.395,112.591 288.675,148.873 283,181 C268.678,262.081 258.272,356.649 252.435,416.78 " fill="none" id="Player-to-Marketplace" style="stroke:#181818;stroke-width:1.0;"/><polygon fill="#181818" points="251.954,421.769,256.7995,413.1945,252.434,416.7921,248.8364,412.4266,251.954,421.769" style="stroke:#181818;stroke-width:1.0;"/><text fill="#000000" font-family="sans-serif" font-size="13" lengthAdjust="spacing" textLength="24" x="294" y="147.0669">buy</text></g><!--link Marketplace to RewardToken--><g id="link_Marketplace_RewardToken"><path codeLine="58" d="M247,535.406 C247,543.339 247,551.572 247,559.713 " fill="none" id="Marketplace-to-RewardToken" style="stroke:#181818;stroke-width:1.0;"/><polygon fill="#181818" points="247,564.767,251,555.767,247,559.767,243,555.767,247,564.767" style="stroke:#181818;stroke-width:1.0;"/></g><!--SRC=[fPHDRy8m38Rl_HKv5eqULcdJb0CIC6dQOQC2RjCE9ZKieacg98MXQVzz_Q9Drp6GwAbz_Tfzx3fb2HX3eWGEgCcNH_BhXa0SQpI6aZ5ZAfFsEVQ-FO-LrabchP9F8F0_UnL82tbQI9Haj-53BUTrR5I4bbmW9PD4iUrh9bQetJmE7xG6gsMhB2Hpt8EEJGGypbCX0Sdm6ETiYtQfjYZpp4KKXdL0bpb_10JeF2DDWE5KIQk1vQGlhLZQWi35yWUKx1IFcz86RQCrKt9gd1_JIMxOeOODHfepx3RRCAsoWv-MGpeEgyUou29Dy14_Bo0f62AbafhZxRtxDhE7rET7oY5HcMtkGPIbP0Cw98BBSQdE2byjz_YMRVld2DksgrgpjG-LWH9ZDPURGMyfD4YpHksljH9ElM7UREUnuZ-DEM-Nw1hCndazQSQb3U_kkmkPpzpwbxLst20j_OjdKVyfWc3a_WbeTJOyHoeSxfUbJN-_NUvWQSdljUyPEUjBo_thCBZdZ1Q7mNELNl6Yrny0]--></g></svg>